<?xml version="1.0" encoding="UTF-8"?>
<!-- Created with Inkscape (http://www.inkscape.org/) -->
<svg width="88.9mm" height="74.083mm" version="1.1" viewBox="0 0 88.9 74.083" xmlns="http://www.w3.org/2000/svg">
 <g transform="translate(-18.614 -10.006)">
  <g>
   <path transform="scale(.26458)" d="m87.428 56.594v15.223h95.625v-15.223zm129.19 0v15.223h171.73v-15.223z" fill="#ccc"/>
   <path transform="scale(.26458)" d="m87.428 71.816v23.027h70.256v-13.66h25.369v-9.3672zm129.19 0v9.3672h24.98v13.66h146.75v-23.027z" fill="#093"/>
   <path transform="scale(.26458)" d="m87.428 94.844v20.297h70.256v-20.297zm154.17 0v20.297h146.75v-20.297z" fill="#9c3"/>
   <path transform="scale(.26458)" d="m87.428 115.14v24.588h95.625v-24.588h-25.369zm129.19 0v24.588h171.73v-24.588h-146.75z" fill="#3c6"/>
   <rect x="23.132" y="40.894" width="13.967" height="3.2013" fill="#e30613"/>
   <rect x="23.132" y="46.781" width="13.967" height="3.2013" fill="#005ca9"/>
   <rect x="23.132" y="44.096" width="13.967" height="2.685" fill="#fff"/>
  </g>
  <rect x="23.132" y="40.894" width="13.967" height="9.0876" fill="none" stroke="#ccc" stroke-width=".52917"/>
  <g fill="#093">
   <path d="m49.13 42.974v-0.5684h0.91098v1.1368h-0.91098z" stroke-width=".01975"/>
   <g stroke-width=".019597">
    <path d="m63.602 46.408v-2.4188h0.85025v0.44277l0.12652-0.1166c0.17467-0.16097 0.24055-0.20455 0.45043-0.29801 0.26598-0.11844 0.4147-0.14867 0.73892-0.15019 0.37194-0.0017 0.59748 0.05573 0.84911 0.21639 0.13102 0.08366 0.32485 0.26886 0.37335 0.35675 0.01854 0.03362 0.03855 0.06111 0.04452 0.06111 0.0057 0 0.07629-0.06297 0.15637-0.13994 0.22589-0.21718 0.50043-0.36526 0.83732-0.45165 0.23138-0.05933 0.69168-0.05919 0.94801 2.87e-4 0.29392 0.0682 0.49614 0.173 0.70046 0.36298 0.18809 0.1749 0.28892 0.32302 0.37252 0.54727 0.11024 0.29568 0.1113 0.31693 0.1113 2.2351v1.7713h-0.91098v-1.7129c0-1.4777-0.0041-1.7282-0.03104-1.8245-0.06657-0.23948-0.21497-0.40718-0.4316-0.48772-0.0973-0.03618-0.1537-0.04261-0.37895-0.04332l-0.26463-8.43e-4 -0.17061 0.07922c-0.21052 0.09775-0.38868 0.2458-0.52406 0.43547l-0.10206 0.14299v3.4116h-0.91098v-1.6939c0-1.8335 0.0025-1.7957-0.10989-2.0028-0.06633-0.12262-0.24678-0.27403-0.39122-0.32822-0.09942-0.0373-0.15312-0.0437-0.36939-0.04403-0.24329-3.58e-4 -0.25837 2e-3 -0.39108 0.06067-0.25159 0.11128-0.50123 0.33527-0.62303 0.559-0.03709 0.06814-0.03855 0.1361-0.03855 1.7601v1.6892h-0.91099v-2.4188z"/>
    <path d="m51.805 45.658v-3.1682h0.91098v3.3579h0.17371l1.8183-1.8592h0.55516c0.52055 0 0.55343 2e-3 0.52737 0.03236-0.01527 0.01781-0.49054 0.50148-1.0561 1.0749-0.6057 0.61404-1.0241 1.0529-1.018 1.0677 0.0085 0.02083 0.86276 0.99332 2.1017 2.3927l0.23961 0.27063-1.1845-0.0102-1.9546-2.2386-0.2026-0.0116v2.2595h-0.91098z"/>
    <path d="m49.13 46.408v-2.4188h0.91098v4.8376h-0.91098z"/>
    <path d="m74.493 48.893c-0.43425-0.09278-0.71723-0.36848-0.85733-0.83528-0.04533-0.151-0.04558-0.15975-0.05162-1.7216l-0.0057-1.5699h-0.525v-0.7779h0.52566l0.0057-0.47902 0.0057-0.47902 0.8705-0.21257 0.0057 0.5853 0.0057 0.5853h1.1129v0.77781h-1.1152l0.0114 2.8741 0.04786 0.11126c0.10412 0.242 0.28308 0.32959 0.63261 0.30963 0.16955-0.0097 0.28496-0.03487 0.44505-0.09713 0.02835-0.01101 0.03406 0.01892 0.04615 0.23971 0.0074 0.13876 0.01936 0.32124 0.02605 0.40551l0.01217 0.15323-0.09031 0.03977c-0.22146 0.09755-0.83817 0.14806-1.1069 0.09065z"/>
    <path d="m47.451 48.902c-0.22847-0.04527-0.45546-0.21004-0.55684-0.40421-0.12961-0.24826-0.12058-0.0242-0.12722-3.1572l-0.0057-2.8504h0.91187v5.3798l0.04558 0.08465c0.06387 0.1187 0.14771 0.15637 0.32089 0.14417l0.13363-0.0094 0.02581 0.33931c0.01413 0.18662 0.02058 0.352 0.01422 0.36752-0.03178 0.07751-0.54488 0.14877-0.76182 0.10579z"/>
    <path d="m78.327 48.941c-0.91106-0.14155-1.5219-0.78786-1.7353-1.836-0.06224-0.30575-0.0669-1.0438-0.0084-1.3523 0.18626-0.98375 0.75645-1.658 1.557-1.8411 1.1697-0.26758 2.1864 0.49254 2.4127 1.8038 0.04173 0.24167 0.06019 0.58247 0.04239 0.78239l-0.01471 0.16556h-3.2181l0.01348 0.10908c0.07588 0.61289 0.3282 1.0423 0.72292 1.2305 0.30959 0.14756 0.75716 0.13577 1.0277-0.02708 0.10355-0.06233 0.25017-0.19639 0.29943-0.27378 0.0183-0.02869 0.0392-0.05217 0.04655-0.05217 0.01062 0 0.69846 0.38854 0.72352 0.40868 0.0033 3e-3 -0.03447 0.06373-0.0848 0.13507-0.26022 0.36907-0.60416 0.60891-1.0175 0.70952-0.17814 0.04336-0.59815 0.06414-0.76682 0.03793zm1.377-3.1069c-0.04468-0.2794-0.18573-0.5913-0.352-0.77852-0.29919-0.33691-0.80759-0.43908-1.2348-0.24815-0.16604 0.0742-0.37576 0.26699-0.47788 0.43931-0.08531 0.14394-0.18239 0.40833-0.20957 0.57071l-0.01773 0.10594h2.3063z"/>
    <path d="m60.68 48.941c-0.78816-0.12248-1.3736-0.64639-1.6368-1.4648-0.12097-0.37612-0.14477-0.55434-0.14407-1.0785 5.3e-4 -0.39887 0.0074-0.49622 0.0455-0.68638 0.19599-0.96842 0.75374-1.6136 1.5591-1.8036 0.14335-0.0338 0.2312-0.0413 0.46985-0.04013 0.25778 0.0013 0.31573 0.0077 0.47574 0.05273 0.54309 0.15281 0.9614 0.52164 1.2203 1.076 0.38121 0.81621 0.38121 2.0054 0 2.8217-0.33056 0.70778-0.91436 1.1092-1.6454 1.1314-0.13361 4e-3 -0.28848 2.86e-4 -0.34415-0.0083zm0.45779-0.87395c0.59482-0.10403 0.96961-0.7456 0.96937-1.6594-2.28e-4 -0.59636-0.15199-1.066-0.43826-1.3558-0.21367-0.21627-0.44151-0.31071-0.7464-0.3094-0.28824 0.0012-0.51419 0.09192-0.71824 0.28824-0.16498 0.15873-0.25099 0.29398-0.336 0.52837-0.09766 0.26926-0.13279 0.49358-0.13289 0.84873-1.56e-4 0.62687 0.14398 1.0615 0.45349 1.3673 0.26056 0.2574 0.58167 0.35619 0.94894 0.29196z"/>
   </g>
   <path d="m49.573 79.472c-0.55108-0.07761-0.87498-0.22188-1.1759-0.52376-0.10472-0.10504-0.20734-0.22161-0.22805-0.25904l-0.03765-0.06806 0.29287-0.25672c0.40799-0.35764 0.35446-0.3368 0.4951-0.19276 0.40202 0.41178 0.98136 0.52874 1.4645 0.29564 0.19659-0.09486 0.3496-0.24916 0.4454-0.4492 0.11641-0.24305 0.1451-0.38599 0.15961-0.79515l0.01309-0.36957-0.16656 0.15783c-0.25849 0.24494-0.51672 0.366-0.88562 0.41519-1.0917 0.14557-1.8916-0.54595-2.0757-1.7944-0.05314-0.36064-0.06309-0.60875-0.03805-0.95293 0.06162-0.84679 0.29858-1.4348 0.73428-1.8223 0.14762-0.13128 0.46417-0.29667 0.67792-0.35418 0.19733-0.05308 0.70752-0.05167 0.92953 0.0027 0.25817 0.06309 0.50681 0.19728 0.69259 0.37376 0.09006 0.08555 0.17014 0.15555 0.17795 0.15555 0.0078 0 0.01422-0.10079 0.01422-0.22399v-0.22398h0.83018l-0.0074 2.5702c-0.0081 2.7998-2e-3 2.6543-0.13358 3.0406-0.22265 0.65202-0.70507 1.0869-1.3668 1.2321-0.15747 0.03458-0.67584 0.06175-0.81186 0.04259zm0.64244-2.982c0.29318-0.09898 0.58672-0.34353 0.71109-0.59244l0.06876-0.13761v-1.5967l-0.06015-0.12199c-0.03472-0.07047-0.12697-0.1885-0.21839-0.27946-0.25625-0.25497-0.52646-0.3689-0.87501-0.3689-0.76115 0-1.1756 0.55279-1.1756 1.5679 0 0.87564 0.31779 1.4248 0.90155 1.5579 0.17846 0.04066 0.48218 0.02724 0.64776-0.02864zm-5.6448 1.335c-1.0627-0.1767-1.7504-1.2272-1.7504-2.6739 0-1.0075 0.3423-1.8598 0.92557-2.3045 0.50748-0.38692 1.1513-0.4943 1.7283-0.28829 0.61417 0.21929 1.0866 0.79284 1.2868 1.5624 0.09253 0.35551 0.1385 0.91682 0.09881 1.2064l-0.01422 0.10392h-3.2004l0.01182 0.06162c0.0067 0.03385 0.01856 0.11704 0.02677 0.18478 0.04166 0.34222 0.20267 0.71745 0.3982 0.92808 0.46413 0.5 1.2489 0.45386 1.6317-0.09592l0.03659-0.05254 0.7186 0.43616-0.03071 0.05942c-0.11235 0.21726-0.4148 0.52903-0.64292 0.66272-0.33395 0.19572-0.81396 0.27791-1.2245 0.20964zm1.4141-3.2619c-0.02524-0.16409-0.12241-0.46552-0.19281-0.59796-0.08556-0.16092-0.29547-0.39169-0.4255-0.46774-0.20463-0.11968-0.54915-0.16554-0.78079-0.10393-0.26417 0.07027-0.53953 0.30051-0.68368 0.57167-0.07041 0.13244-0.16761 0.43387-0.19282 0.59796l-0.01288 0.08399h2.3014zm8.1096 3.2539c-0.19963-0.03625-0.29948-0.06837-0.45603-0.14678-0.40913-0.20492-0.67185-0.5323-0.82108-1.0232-0.05461-0.17956-0.05989-0.23028-0.06062-0.57762-6.67e-4 -0.35434 0.0033-0.39322 0.05909-0.55996 0.16757-0.50124 0.5324-0.83142 1.0802-0.97762 0.24552-0.06549 0.78545-0.07146 1.0639-0.01168 0.2617 0.05615 0.43952 0.11744 0.56705 0.19541 0.05935 0.03625 0.11312 0.06596 0.11952 0.06596 0.0067 0 0.0077-0.16379 0.0033-0.36398-0.01008-0.42709-0.0446-0.547-0.21048-0.73152-0.18035-0.20059-0.4257-0.30577-0.77031-0.33021-0.41905-0.02971-0.79234 0.13584-1.0354 0.45919l-0.10094 0.13428-0.08698-0.07061c-0.0478-0.03886-0.20011-0.16431-0.33839-0.27883l-0.25141-0.20821 0.06911-0.11231c0.22415-0.3643 0.63253-0.64561 1.1101-0.7647 0.26535-0.06616 0.80244-0.07085 1.0707-0.0093 0.71188 0.16325 1.1611 0.56118 1.3434 1.1899 0.08468 0.29216 0.10025 0.58596 0.10092 1.9039 5.87e-4 1.1133 0.0027 1.1679 0.04413 1.2361 0.05314 0.08717 0.10948 0.11902 0.24462 0.13833l0.10367 0.01482 0.02617 0.29092c0.04013 0.44657 0.04947 0.40328-0.09896 0.46093-0.10223 0.03972-0.17729 0.0504-0.36398 0.05201-0.20955 2e-3 -0.24861-0.0047-0.35837-0.05655-0.14434-0.06856-0.27972-0.19777-0.31792-0.30343-0.01489-0.04112-0.03598-0.07481-0.04693-0.07481s-0.06987 0.04373-0.13097 0.09717c-0.34964 0.30586-1.0151 0.46084-1.5568 0.36253zm0.80948-0.85177c0.23027-0.04834 0.46242-0.17115 0.61837-0.3271l0.13198-0.13197v-0.8866l-0.0952-0.09081c-0.20965-0.19999-0.43519-0.27716-0.85674-0.2931-0.40019-0.01515-0.59525 0.03538-0.81083 0.20997-0.33116 0.2682-0.34865 0.96499-0.03218 1.2815 0.22934 0.22934 0.64028 0.32302 1.0446 0.23814zm4.0286 0.85177c-0.19963-0.03625-0.29948-0.06837-0.45603-0.14678-0.40913-0.20492-0.67185-0.5323-0.82108-1.0232-0.05461-0.17956-0.05989-0.23028-0.06062-0.57762-6.68e-4 -0.35434 0.0033-0.39322 0.05909-0.55996 0.16757-0.50124 0.53239-0.83142 1.0802-0.97762 0.24552-0.06549 0.78545-0.07146 1.0639-0.01168 0.2617 0.05615 0.43951 0.11744 0.56705 0.19541 0.05935 0.03625 0.11312 0.06596 0.11952 0.06596 0.0067 0 0.0077-0.16379 0.0033-0.36398-0.01008-0.42709-0.0446-0.547-0.21048-0.73152-0.18035-0.20059-0.4257-0.30577-0.77031-0.33021-0.41905-0.02971-0.79234 0.13584-1.0354 0.45919l-0.10094 0.13428-0.08698-0.07061c-0.04787-0.03886-0.20011-0.16431-0.33838-0.27883l-0.25141-0.20821 0.06911-0.11231c0.22416-0.3643 0.63253-0.64561 1.1101-0.7647 0.26535-0.06616 0.80244-0.07085 1.0707-0.0093 0.71187 0.16325 1.1611 0.56118 1.3434 1.1899 0.08467 0.29216 0.10024 0.58596 0.10092 1.9039 5.94e-4 1.1133 0.0027 1.1679 0.04413 1.2361 0.05314 0.08717 0.10948 0.11902 0.24462 0.13833l0.10367 0.01482 0.02617 0.29092c0.04012 0.44657 0.04947 0.40328-0.09896 0.46093-0.10223 0.03972-0.17729 0.0504-0.36397 0.05201-0.20955 2e-3 -0.24862-0.0047-0.35838-0.05655-0.14433-0.06856-0.27972-0.19777-0.31792-0.30343-0.01489-0.04112-0.03599-0.07481-0.04693-0.07481-0.01095 0-0.06987 0.04373-0.13096 0.09717-0.34964 0.30586-1.0151 0.46084-1.5568 0.36253zm0.80948-0.85177c0.23027-0.04834 0.46242-0.17115 0.61837-0.3271l0.13198-0.13197v-0.8866l-0.0952-0.09081c-0.20965-0.19999-0.43519-0.27716-0.85674-0.2931-0.40019-0.01515-0.59525 0.03538-0.81083 0.20997-0.33116 0.2682-0.34865 0.96499-0.03218 1.2815 0.22934 0.22934 0.64027 0.32302 1.0446 0.23814zm13.996 0.85177c-0.19963-0.03625-0.29948-0.06837-0.45603-0.14678-0.40913-0.20492-0.67185-0.5323-0.82108-1.0232-0.05461-0.17956-0.05989-0.23028-0.06062-0.57762-6.68e-4 -0.35434 0.0033-0.39322 0.05908-0.55996 0.16757-0.50124 0.5324-0.83142 1.0802-0.97762 0.24552-0.06549 0.78545-0.07146 1.0639-0.01168 0.2617 0.05615 0.43952 0.11744 0.56705 0.19541 0.05935 0.03625 0.11312 0.06596 0.11952 0.06596 0.0067 0 0.0077-0.16379 0.0033-0.36398-0.01008-0.42709-0.0446-0.547-0.21048-0.73152-0.18035-0.20059-0.4257-0.30577-0.77031-0.33021-0.41905-0.02971-0.79234 0.13584-1.0354 0.45919l-0.10094 0.13428-0.08698-0.07061c-0.04787-0.03886-0.20011-0.16431-0.33839-0.27883l-0.25141-0.20821 0.06911-0.11231c0.22416-0.3643 0.63253-0.64561 1.1101-0.7647 0.26535-0.06616 0.80244-0.07085 1.0707-0.0093 0.71188 0.16325 1.1611 0.56118 1.3434 1.1899 0.08468 0.29216 0.10025 0.58596 0.10092 1.9039 5.94e-4 1.1133 0.0027 1.1679 0.04413 1.2361 0.05314 0.08717 0.10948 0.11902 0.24462 0.13833l0.10367 0.01482 0.02617 0.29092c0.04013 0.44657 0.04947 0.40328-0.09895 0.46093-0.10223 0.03972-0.1773 0.0504-0.36398 0.05201-0.20955 2e-3 -0.24861-0.0047-0.35837-0.05655-0.14434-0.06856-0.27971-0.19777-0.31792-0.30343-0.01489-0.04112-0.03598-0.07481-0.04693-0.07481s-0.06987 0.04373-0.13096 0.09717c-0.34964 0.30586-1.0151 0.46084-1.5568 0.36253zm0.80947-0.85177c0.23027-0.04834 0.46242-0.17115 0.61837-0.3271l0.13198-0.13197v-0.8866l-0.0952-0.09081c-0.20965-0.19999-0.43519-0.27716-0.85674-0.2931-0.40019-0.01515-0.59525 0.03538-0.81083 0.20997-0.33116 0.2682-0.34865 0.96499-0.03218 1.2815 0.22934 0.22934 0.64028 0.32302 1.0446 0.23814zm9.3415 0.84933c-0.99951-0.22364-1.5616-1.2804-1.506-2.8315 0.03638-1.0153 0.2964-1.7007 0.81743-2.1546 0.29195-0.25434 0.6049-0.36342 1.0456-0.36444 0.50461-0.0013 0.85878 0.1238 1.1421 0.403l0.14578 0.14363v-2.0369h0.91833v6.7419h-0.85113v-0.47237l-0.1176 0.11976c-0.30606 0.3117-0.67659 0.46015-1.1927 0.47783-0.1691 6e-3 -0.29514-0.0027-0.40181-0.0263zm0.8802-0.95192c0.29304-0.10011 0.59466-0.35786 0.72032-0.61554 0.04226-0.08668 0.0444-0.13955 0.0444-1.098v-1.007l-0.08399-0.1421c-0.15745-0.26636-0.46045-0.49572-0.75688-0.57294-0.1498-0.03899-0.42226-0.04406-0.56773-0.01055-0.40642 0.0937-0.68265 0.41278-0.82291 0.95058-0.07965 0.30541-0.10189 1.0031-0.04313 1.3543 0.1178 0.70452 0.40391 1.0743 0.91956 1.1885 0.13811 0.03058 0.43111 0.0071 0.59037-0.04727zm4.5985 0.96231c-1.0627-0.1767-1.7504-1.2272-1.7504-2.6739 0-1.0075 0.3423-1.8598 0.92557-2.3045 0.50749-0.38692 1.1513-0.4943 1.7283-0.28829 0.61417 0.21929 1.0866 0.79284 1.2868 1.5624 0.09252 0.35551 0.1385 0.91682 0.09881 1.2064l-0.01422 0.10392h-3.2004l0.01182 0.06162c0.0067 0.03385 0.01856 0.11704 0.02677 0.18478 0.04166 0.34222 0.20267 0.71745 0.3982 0.92808 0.46414 0.5 1.2489 0.45386 1.6317-0.09592l0.03659-0.05254 0.7186 0.43616-0.03071 0.05942c-0.11235 0.21726-0.4148 0.52903-0.64292 0.66272-0.33395 0.19572-0.81396 0.27791-1.2245 0.20964zm1.4141-3.2619c-0.02524-0.16409-0.12241-0.46552-0.19282-0.59796-0.08554-0.16092-0.29546-0.39169-0.4255-0.46774-0.20463-0.11968-0.54915-0.16554-0.78078-0.10393-0.26417 0.07027-0.53953 0.30051-0.68369 0.57167-0.0704 0.13244-0.1676 0.43387-0.19281 0.59796l-0.01289 0.08399h2.3014zm-49.558 3.2194c-0.22823-0.05788-0.43344-0.22604-0.54251-0.44461-0.12615-0.25282-0.12294-0.16434-0.12336-3.3907l-4.27e-4 -2.9734h0.89527l6e-3 2.8726c0.0053 2.6975 0.0083 2.877 0.04553 2.945 0.02176 0.03986 0.07099 0.08866 0.10939 0.10852 0.06752 0.03492 0.26538 0.04834 0.3096 0.02103 0.01195-0.0073 0.02651 0.0097 0.03238 0.03792 0.0094 0.045 0.05782 0.63652 0.05782 0.70631 0 0.07985-0.59106 0.16767-0.78964 0.11732zm22.174 0c-0.22824-0.05788-0.43345-0.22604-0.54251-0.44461-0.12616-0.25282-0.12294-0.16434-0.12336-3.3907l-4.2e-4 -2.9734h0.89527l6e-3 2.8726c0.0053 2.6975 0.0083 2.877 0.04553 2.945 0.02177 0.03986 0.071 0.08866 0.1094 0.10852 0.06752 0.03492 0.26538 0.04834 0.3096 0.02103 0.01195-0.0073 0.0265 0.0097 0.03238 0.03792 0.0094 0.045 0.05782 0.63652 0.05782 0.70631 0 0.07985-0.59106 0.16767-0.78963 0.11732zm30.014 0c-0.22824-0.05788-0.43344-0.22604-0.54251-0.44461-0.12616-0.25282-0.12294-0.16434-0.12336-3.3907v-2.9734h0.89528l6e-3 2.8726c0.0053 2.6975 0.0084 2.877 0.04553 2.945 0.02177 0.03986 0.071 0.08866 0.10939 0.10852 0.06752 0.03492 0.26538 0.04834 0.3096 0.02103 0.01195-0.0073 0.0265 0.0097 0.03238 0.03792 0.0094 0.045 0.05782 0.63652 0.05782 0.70631 0 0.07985-0.59106 0.16767-0.78964 0.11732zm2.7047 0.0013c-0.26074-0.05802-0.43233-0.15341-0.59424-0.33028-0.13506-0.14753-0.22245-0.31879-0.29471-0.57756-0.04934-0.17668-0.05014-0.20214-0.05768-1.8199l-0.0077-1.6407h-0.51275v-0.82871h0.51432l0.012-1.0191 0.43677-0.11415 0.43677-0.11415 6e-3 0.62372 6e-3 0.62371h1.0968v0.82874h-1.0993l0.0067 1.5175c6e-3 1.387 0.01001 1.526 0.04613 1.6167 0.05775 0.14528 0.13101 0.23021 0.24962 0.28946 0.08994 0.04493 0.13719 0.05227 0.32665 0.05094 0.20509-0.0013 0.3218-0.02537 0.49495-0.10139 0.03118-0.01369 0.03786 0.01476 0.05061 0.21495 0.0081 0.1269 0.0209 0.32218 0.02844 0.43396l0.01375 0.20322-0.10918 0.04673c-0.06002 0.0257-0.16964 0.05828-0.24356 0.07236-0.17755 0.03385-0.69313 0.04907-0.80634 0.0239zm-28.345-3.4388v-3.371h0.89593v1.0191c0 0.56052 0.0067 1.0191 0.01422 1.0191 0.0078 0 0.06536-0.05201 0.12792-0.11553 0.30978-0.31472 0.73768-0.46587 1.2354-0.43639 0.43124 0.02557 0.70756 0.14541 0.98922 0.42912 0.14943 0.15052 0.20153 0.22264 0.28482 0.39429 0.05608 0.11555 0.1245 0.29575 0.15209 0.40047 0.04974 0.18889 0.05021 0.20547 0.05768 2.111l0.0075 1.9207h-0.89422l-0.01002-1.7303c-0.01088-1.8772-0.01288-1.9093-0.13772-2.1732-0.12726-0.269-0.33513-0.39673-0.67459-0.41448-0.25161-0.01315-0.44549 0.03745-0.64928 0.1696-0.16774 0.10875-0.36721 0.32322-0.44408 0.47746l-0.05895 0.11831v3.5525h-0.89594zm9.7657 0.80634v-2.5646h0.85113v0.46845l0.10464-0.11187c0.30922-0.33058 0.82172-0.51547 1.3401-0.48345 0.45103 0.02791 0.79419 0.19533 1.0632 0.51884 0.12326 0.14822 0.27827 0.46943 0.3405 0.70555 0.0498 0.18889 0.0502 0.20547 0.05768 2.111l0.0075 1.9207h-0.89582l-0.0069-1.7975c-0.0069-1.7863-0.0072-1.7984-0.05648-1.944-0.06543-0.19357-0.16703-0.34292-0.29172-0.42871-0.2988-0.20558-0.77822-0.20417-1.1014 0.0033-0.15168 0.09733-0.38434 0.34921-0.4567 0.4944l-0.05982 0.12v3.5525h-0.89594z" stroke-width=".022398"/>
   <path d="m41.952 58.661c-0.17315-0.02661-0.39314-0.10269-0.56693-0.19607-0.61997-0.33311-1.0109-1.0163-1.1184-1.9544-0.03352-0.2925-0.01392-0.92534 0.03764-1.2165 0.12278-0.69303 0.44303-1.2539 0.8925-1.5632 0.14392-0.09902 0.40035-0.21137 0.59045-0.25868 0.24659-0.06138 0.68673-0.06175 0.93145-8.06e-4 0.32068 0.07989 0.55823 0.21603 0.78086 0.4475 0.20916 0.21746 0.37118 0.50574 0.47398 0.84336l0.04899 0.16093-0.06186 0.01066c-0.16555 0.02849-0.71965 0.10791-0.75296 0.10791-0.02824 0-0.04421-0.02274-0.06294-0.08967-0.05129-0.18318-0.2516-0.42601-0.42393-0.51393-0.2272-0.11591-0.57066-0.14267-0.80656-0.06284-0.54826 0.18552-0.84716 0.77633-0.84716 1.6745 0 0.64774 0.13924 1.0959 0.43856 1.4114 0.20659 0.21777 0.441 0.32091 0.72935 0.32091 0.39794 0 0.69527-0.1929 0.87878-0.57014l0.09071-0.18646 0.4028 0.06369c0.22154 0.03503 0.40745 0.06834 0.41314 0.07404 0.01372 0.01372-0.08 0.2942-0.15166 0.45395-0.22659 0.50503-0.65523 0.87595-1.164 1.0073-0.18384 0.04745-0.56238 0.06584-0.75282 0.03656zm4.7459 0.0031c-0.76206-0.12637-1.3281-0.66692-1.5826-1.5113-0.11696-0.38807-0.13997-0.57195-0.1393-1.1128 6.05e-4 -0.41154 0.0067-0.51199 0.04396-0.70819 0.1895-0.99919 0.72878-1.6649 1.5075-1.8609 0.1386-0.03488 0.22354-0.04262 0.4543-0.04139 0.24925 0.0014 0.30528 8e-3 0.45999 0.0544 0.52511 0.15766 0.92957 0.53822 1.1799 1.1102 0.36859 0.84215 0.36859 2.0692 0 2.9113-0.31962 0.73026-0.88409 1.1444-1.591 1.1673-0.12918 0.0042-0.27893 2.02e-4 -0.33276-0.0086zm0.44264-0.90172c0.57513-0.10734 0.93751-0.76929 0.93727-1.7121-1.47e-4 -0.61531-0.14695-1.0999-0.42375-1.3989-0.20659-0.22314-0.42689-0.32058-0.72168-0.31923-0.2787 0.0012-0.49717 0.09483-0.69446 0.2974-0.15952 0.16377-0.24268 0.30332-0.32488 0.54516-0.09443 0.27782-0.12839 0.50927-0.1285 0.8757-1.49e-4 0.64679 0.13921 1.0953 0.43847 1.4107 0.25194 0.26557 0.56242 0.36751 0.91752 0.30124zm15.999 0.90172c-0.76206-0.12637-1.3281-0.66692-1.5826-1.5113-0.11696-0.38807-0.13998-0.57195-0.1393-1.1128 6.05e-4 -0.41154 0.0067-0.51199 0.04396-0.70819 0.1895-0.99919 0.72878-1.6649 1.5075-1.8609 0.1386-0.03488 0.22354-0.04262 0.4543-0.04139 0.24924 0.0014 0.30528 8e-3 0.45999 0.0544 0.52511 0.15766 0.92957 0.53822 1.1799 1.1102 0.36859 0.84215 0.36859 2.0692 0 2.9113-0.31962 0.73026-0.88409 1.1444-1.5909 1.1673-0.12919 0.0042-0.27893 2.02e-4 -0.33276-0.0086zm0.44263-0.90172c0.57513-0.10734 0.93751-0.76929 0.93727-1.7121-2.01e-4 -0.61531-0.14695-1.0999-0.42375-1.3989-0.20659-0.22314-0.42689-0.32058-0.72168-0.31923-0.2787 0.0012-0.49717 0.09483-0.69446 0.2974-0.15952 0.16377-0.24268 0.30332-0.32488 0.54516-0.09443 0.27782-0.12839 0.50927-0.12849 0.8757-2.02e-4 0.64679 0.13921 1.0953 0.43847 1.4107 0.25194 0.26557 0.56241 0.36751 0.91752 0.30124zm6.8388 0.90171c-0.8809-0.14605-1.4715-0.81289-1.6779-1.8944-0.06019-0.31547-0.06464-1.077-0.0082-1.3953 0.1801-1.015 0.73141-1.7107 1.5054-1.8996 1.1309-0.27608 2.114 0.50819 2.3328 1.8611 0.04033 0.24935 0.05819 0.60098 0.04101 0.80726l-0.01422 0.17082h-3.1116l0.01305 0.11255c0.0734 0.63237 0.31733 1.0754 0.69898 1.2695 0.29934 0.15225 0.7321 0.14008 0.9937-0.02795 0.10012-0.0643 0.24189-0.20263 0.28952-0.28248 0.01766-0.0296 0.03791-0.05382 0.04499-0.05382 0.01023 0 0.67533 0.40089 0.69956 0.42167 0.0035 0.0031-0.03336 0.06575-0.08199 0.13936-0.2516 0.3808-0.58416 0.62826-0.98382 0.73207-0.17224 0.04474-0.57834 0.06618-0.74142 0.03913zm1.3314-3.2056c-0.04323-0.28827-0.17958-0.61008-0.34034-0.80326-0.28929-0.34762-0.78085-0.45303-1.194-0.25603-0.16054 0.07655-0.36332 0.27547-0.46206 0.45327-0.08248 0.14851-0.17635 0.4213-0.20262 0.58884l-0.01714 0.1093h2.2299zm7.2028 3.2056c-0.8809-0.14605-1.4715-0.81289-1.6779-1.8944-0.06019-0.31547-0.06465-1.077-0.0082-1.3953 0.1801-1.015 0.73141-1.7107 1.5054-1.8996 1.1309-0.27608 2.114 0.50819 2.3328 1.8611 0.04033 0.24935 0.05819 0.60098 0.04101 0.80726l-0.01422 0.17082h-3.1115l0.01305 0.11255c0.0734 0.63237 0.31733 1.0754 0.69898 1.2695 0.29935 0.15225 0.7321 0.14008 0.9937-0.02795 0.10012-0.0643 0.24189-0.20263 0.28952-0.28248 0.01766-0.0296 0.03791-0.05382 0.04499-0.05382 0.01023 0 0.67533 0.40089 0.69956 0.42167 0.0035 0.0031-0.03336 0.06575-0.08199 0.13936-0.2516 0.3808-0.58416 0.62826-0.98383 0.73207-0.17224 0.04474-0.57834 0.06618-0.74142 0.03913zm1.3314-3.2056c-0.04323-0.28827-0.17958-0.61008-0.34034-0.80326-0.28929-0.34762-0.78085-0.45303-1.194-0.25603-0.16054 0.07655-0.36332 0.27547-0.46206 0.45327-0.08248 0.14851-0.17635 0.4213-0.20262 0.58884l-0.01714 0.1093h2.2299zm-24.495 3.156c-0.41987-0.09572-0.69348-0.38018-0.82893-0.86182-0.04381-0.15579-0.04407-0.16483-0.04989-1.7763l-0.0059-1.6197h-0.50763v-0.80253h0.50825l0.0052-0.49424 0.0052-0.49424 0.84167-0.21932 0.0052 0.6039 0.0052 0.6039h1.076v0.80253h-1.0782l0.0056 1.4827 0.0057 1.4827 0.04629 0.1148c0.10068 0.24969 0.27371 0.34006 0.61167 0.31947 0.16393-0.01002 0.27553-0.03598 0.43031-0.10022 0.02737-0.01136 0.03295 0.01952 0.04466 0.24732 0.0074 0.14317 0.01869 0.33145 0.02518 0.4184l0.0118 0.15809-0.08732 0.04104c-0.21412 0.10066-0.81042 0.15276-1.0702 0.09353zm11.351 0.0087c-0.2209-0.0467-0.44038-0.21671-0.5384-0.41705-0.12532-0.25615-0.11659-0.02496-0.12302-3.2575l-0.0059-2.941h0.88168v5.5507l0.04404 0.08734c0.06177 0.12248 0.14282 0.16134 0.31026 0.14875l0.1292-0.0097 0.02491 0.35009c0.0137 0.19255 0.0199 0.36319 0.01375 0.3792-0.03069 0.07997-0.52684 0.1535-0.7366 0.10915zm-17.108-2.5735v-2.4957h0.8221v0.45238l0.12594-0.12595c0.2424-0.2424 0.52216-0.3824 0.86843-0.4346 0.84447-0.12729 1.469 0.23558 1.7256 1.0026 0.11595 0.34665 0.11805 0.38805 0.11817 2.3303l1.5e-4 1.7665h-0.87963l-0.0054-1.7665-0.0055-1.7665-0.04515-0.12723c-0.12887-0.36316-0.4008-0.54807-0.806-0.54807-0.21179 0-0.37649 0.04703-0.5441 0.15536-0.15273 0.09872-0.32738 0.27686-0.41534 0.42364l-0.06851 0.11433-0.0052 1.7575-0.0052 1.7575h-0.88021zm7.81 0v-2.4957h0.8221l6.05e-4 0.30829 6.04e-4 0.30829 0.04278-0.05872c0.1391-0.19092 0.41643-0.42484 0.63475-0.53538 0.25867-0.13097 0.67846-0.18808 0.97994-0.13331 0.16423 0.02984 0.41103 0.12944 0.46299 0.18685 0.02526 0.0279 0.02421 0.08237-0.0086 0.45252-0.02053 0.23144-0.03753 0.43551-0.03779 0.45349-4.03e-4 0.0278-0.01757 0.02414-0.11492-0.02451-0.21294-0.1064-0.39045-0.14196-0.71742-0.14367-0.25791-0.0014-0.31027 0.0041-0.43063 0.04412-0.27553 0.09183-0.50176 0.26588-0.66525 0.51179l-0.08834 0.13289v3.4887h-0.88082zm15.816 0v-2.4957h0.8221l6.03e-4 0.30829 6.04e-4 0.30829 0.04278-0.05872c0.1391-0.19092 0.41643-0.42484 0.63475-0.53538 0.25867-0.13097 0.67846-0.18808 0.97993-0.13331 0.16423 0.02984 0.41103 0.12944 0.46299 0.18685 0.02525 0.0279 0.02421 0.08237-0.0086 0.45252-0.02053 0.23144-0.03754 0.43551-0.03779 0.45349-4.03e-4 0.0278-0.01757 0.02414-0.11492-0.02451-0.21294-0.1064-0.39045-0.14196-0.71743-0.14367-0.25791-0.0014-0.31027 0.0041-0.43062 0.04412-0.27553 0.09183-0.50176 0.26588-0.66525 0.51179l-0.08834 0.13289v3.4887h-0.88082v-2.4957zm8.5342 0v-2.4957h0.8221v0.45238l0.12595-0.12595c0.2424-0.2424 0.52216-0.3824 0.86843-0.4346 0.84447-0.12729 1.469 0.23558 1.7255 1.0026 0.11595 0.34665 0.11805 0.38805 0.11818 2.3303l2.02e-4 1.7665h-0.87963l-0.0054-1.7665-0.0054-1.7665-0.04515-0.12723c-0.12887-0.36316-0.4008-0.54807-0.806-0.54807-0.21179 0-0.3765 0.04703-0.5441 0.15536-0.15273 0.09871-0.32738 0.27686-0.41534 0.42364l-0.06851 0.11433-0.0052 1.7575-0.0052 1.7575h-0.88024v-2.4957z" stroke-width=".019574"/>
   <path d="m92.392 62.112v-0.50064h0.86626v1.0013h-0.86626z" stroke-width=".020227"/>
   <g stroke-width=".021656">
    <path d="m92.392 65.403v-2.4797h0.86626v4.9594h-0.86626z"/>
    <path d="m72.576 67.871c0-0.01462-1.1089-4.4036-1.1913-4.7146l-0.06171-0.2328h0.94112l0.39415 1.7578c0.21678 0.96676 0.39903 1.7626 0.40501 1.7686 6e-3 0.0065 0.01749 0.0032 0.02564-0.0032 0.01088-0.01135 0.82561-3.0633 0.92426-3.4629l0.01462-0.05963h0.92144l0.45191 1.7488c0.24855 0.96181 0.45993 1.7578 0.46973 1.769 0.0097 0.01135 0.02234 0.01624 0.02778 0.0097 0.0078-0.0082 0.73205-3.2067 0.78532-3.4684l0.01219-0.05962h0.93123l-0.01251 0.06271c-0.01251 0.06223-1.2392 4.7862-1.2619 4.8593-0.01088 0.03526-0.04824 0.03785-0.48006 0.0325l-0.46816-0.0065-0.44751-1.6665c-0.24613-0.91658-0.45867-1.6702-0.47231-1.6748-0.01364-0.0048-0.02477-0.0032-0.02477 0.0017 0 0.0097-0.82836 2.9836-0.90143 3.2363l-0.0329 0.11373h-0.47491c-0.2612 0-0.47491-0.0048-0.47491-0.01135z"/>
    <path d="m60.307 67.455 6.74e-4 -0.4277 1.2868-1.6242c0.70775-0.89333 1.2873-1.6364 1.2879-1.6513 6.73e-4 -0.02129-0.25968-0.02696-1.2334-0.02696h-1.2344v-0.80131h3.465v0.82467l-1.2777 1.6427c-0.70275 0.9035-1.2777 1.6486-1.2777 1.6559 0 0.0065 0.58472 0.013 1.2994 0.013h1.2994v0.82294h-3.6166l6.73e-4 -0.42772z"/>
    <path d="m45.893 65.804v-2.079h-0.47644v-0.80129h0.47644l2.83e-4 -0.24362c6.72e-4 -0.71872 0.28722-1.206 0.81124-1.3804 0.29286-0.09748 0.72247-0.09764 1.0322-4.23e-4 0.21896 0.06873 0.21061 0.03281 0.1055 0.45449-0.08713 0.34964-0.0955 0.37133-0.13847 0.35893-0.23752-0.0684-0.31808-0.08107-0.45903-0.07213-0.37184 0.02388-0.52875 0.22588-0.52875 0.68077v0.20229h1.0395v0.8013h-0.9962v4.1581h-0.86626z"/>
    <path d="m95.986 67.948c-0.25211-0.05606-0.418-0.14834-0.57456-0.31932-0.13059-0.14265-0.21508-0.30824-0.28495-0.55844-0.0477-0.17082-0.04851-0.19545-0.05577-1.7596l-0.0074-1.5863h-0.49578v-0.80129h0.49729l6e-3 -0.49269 6e-3 -0.49269 0.8446-0.22063 6e-3 0.60304 6e-3 0.60307h1.0605v0.80129h-1.0629l0.0066 1.4672c6e-3 1.3411 0.0097 1.4755 0.04461 1.5632 0.05584 0.14038 0.12666 0.22258 0.24136 0.27986 0.08692 0.04338 0.13258 0.05054 0.31583 0.04924 0.19831-0.0013 0.31115-0.02453 0.47856-0.09797 0.03021-0.013 0.03655 0.01462 0.0489 0.20783 0.0082 0.12266 0.02014 0.3115 0.02746 0.41958l0.013 0.19651-0.10561 0.04517c-0.05801 0.02486-0.16403 0.05638-0.2355 0.07003-0.17167 0.03266-0.67015 0.04744-0.77962 0.02307z"/>
    <path d="m99.595 67.988c-1.0275-0.17085-1.6924-1.1866-1.6924-2.5853 0-0.97414 0.33097-1.7982 0.8949-2.2281 0.4907-0.3741 1.1131-0.47794 1.671-0.27873 0.59382 0.21202 1.0506 0.76658 1.2442 1.5107 0.0895 0.34374 0.13388 0.88645 0.0955 1.1664l-0.0147 0.10057h-3.0944l0.01182 0.05946c0.0059 0.03281 0.01797 0.11308 0.02589 0.17867 0.04031 0.33089 0.19596 0.69367 0.385 0.89734 0.44877 0.48343 1.2075 0.43883 1.5776-0.09277l0.0355-0.05085 0.34738 0.21086 0.34742 0.21085-0.0297 0.05751c-0.10863 0.21006-0.40105 0.5115-0.62162 0.64077-0.32288 0.18924-0.787 0.26871-1.1839 0.2027zm1.3673-3.1538c-0.0244-0.15874-0.11844-0.45011-0.18644-0.57815-0.0826-0.15565-0.28567-0.37872-0.4114-0.45225-0.19785-0.11568-0.53096-0.16003-0.75492-0.10057-0.25542 0.06791-0.52167 0.29058-0.66103 0.55276-0.06809 0.12803-0.16215 0.4195-0.18646 0.57815l-0.013 0.08123h2.2252z"/>
    <path d="m89.274 67.982c-0.59593-0.09813-1.0703-0.42985-1.2975-0.90709-0.12307-0.25851-0.15157-0.22426 0.32695-0.39282 0.23008-0.08107 0.42904-0.15142 0.44212-0.1563 0.01316-0.0048 0.04515 0.04972 0.07122 0.1212 0.0807 0.22135 0.27118 0.42499 0.49341 0.52756 0.09181 0.0424 0.13898 0.04809 0.38612 0.04695 0.30327-0.0013 0.40198-0.02469 0.55594-0.13128 0.23618-0.16343 0.32318-0.57097 0.18157-0.85044-0.11002-0.21714-0.36128-0.36427-0.88911-0.52064-0.37618-0.11145-0.55753-0.17844-0.77963-0.28806-0.5675-0.28007-0.81196-0.64714-0.81371-1.2219-0.0013-0.39748 0.0992-0.64624 0.37163-0.92048 0.13808-0.13891 0.2012-0.18349 0.39004-0.27493 0.34813-0.1686 0.69818-0.23656 1.0916-0.21191 0.73575 0.04614 1.2396 0.39487 1.4278 0.98836 0.02833 0.08936 0.05484 0.19599 0.05901 0.23703l0.0074 0.07458-0.42231 0.07977c-0.23226 0.04403-0.4296 0.07555-0.43854 0.07035-9e-3 -0.0048-0.01624-0.03785-0.01624-0.07246 0-0.09764-0.07941-0.2865-0.16024-0.38093-0.15633-0.18263-0.45186-0.27352-0.74696-0.22973-0.39592 0.05881-0.63036 0.29435-0.62973 0.63279 2.77e-4 0.17622 0.04785 0.28504 0.17564 0.40237 0.13342 0.1225 0.3252 0.20738 0.75329 0.33347 0.42333 0.12462 0.58542 0.18318 0.78153 0.28206 0.59606 0.30056 0.84646 0.7189 0.81659 1.3643-0.01656 0.35836-0.09631 0.57986-0.30229 0.83973-0.18883 0.23826-0.52397 0.43677-0.88668 0.52519-0.23913 0.05833-0.69853 0.07425-0.94895 0.03298z"/>
    <path d="m84.874 67.981c-0.338-0.06401-0.57194-0.17981-0.8024-0.39719l-0.14691-0.13859v0.43839h-0.82295v-6.5186h0.86626v0.98538c0 0.54195 0.0027 0.98537 6e-3 0.98537 0.0034 0 0.07404-0.06629 0.15701-0.14752 0.17728-0.17329 0.3846-0.28577 0.63265-0.3432 0.23847-0.05524 0.70136-0.05442 0.89341 0.0013 0.72611 0.21155 1.1822 0.84704 1.3459 1.8752 0.04368 0.27428 0.03828 1.1634-0.0086 1.4296-0.17323 0.98308-0.63903 1.6178-1.3264 1.8075-0.1815 0.05004-0.58681 0.06141-0.79404 0.02226zm0.40422-0.87676c0.19536-0.03168 0.4196-0.15158 0.54956-0.29383 0.26521-0.29019 0.39266-0.7504 0.39238-1.4168-5.51e-4 -1.0935-0.39724-1.6884-1.1269-1.6895-0.32372-5.53e-4 -0.58863 0.1126-0.83531 0.35641-0.0965 0.09537-0.17938 0.20258-0.22198 0.287l-0.06798 0.13469 5.59e-4 0.92642c5.51e-4 0.88415 0.0027 0.93087 0.0444 1.0234 0.13769 0.30353 0.49542 0.58858 0.83006 0.66138 0.16302 0.03542 0.26754 0.03802 0.43526 0.01135z"/>
    <path d="m79.835 67.989c-1.0275-0.17085-1.6924-1.1866-1.6924-2.5853 0-0.97412 0.33097-1.7982 0.89492-2.2281 0.49068-0.3741 1.1131-0.47794 1.671-0.27873 0.59383 0.21202 1.0506 0.76657 1.2442 1.5106 0.08946 0.34374 0.13391 0.88645 0.09554 1.1664l-0.01381 0.10041h-3.0944l0.01135 0.05946c6e-3 0.03282 0.01797 0.11325 0.02591 0.17867 0.04031 0.33089 0.19595 0.69368 0.38501 0.89736 0.44876 0.48343 1.2075 0.43883 1.5776-0.09277l0.03539-0.05085 0.69481 0.42171-0.02975 0.05751c-0.10861 0.21006-0.40106 0.5115-0.62162 0.64077-0.32288 0.18923-0.78699 0.26869-1.1839 0.2027zm1.3673-3.1538c-0.02435-0.15873-0.11836-0.45009-0.18643-0.57815-0.08271-0.15565-0.28568-0.37872-0.41141-0.45225-0.19785-0.11568-0.53096-0.16003-0.75492-0.10057-0.25542 0.06791-0.52166 0.29056-0.66104 0.55274-0.06808 0.12803-0.16205 0.4195-0.18643 0.57815l-0.01251 0.08123h2.2252z"/>
    <path d="m66.439 67.989c-1.0275-0.17085-1.6924-1.1866-1.6924-2.5853 0-0.97412 0.33097-1.7982 0.89492-2.2281 0.49068-0.3741 1.1131-0.47794 1.671-0.27873 0.59382 0.21202 1.0506 0.76657 1.2442 1.5106 0.08945 0.34374 0.13391 0.88645 0.09554 1.1664l-0.01381 0.10041h-3.0944l0.01135 0.05946c6e-3 0.03282 0.01797 0.11325 0.0259 0.17867 0.04031 0.33089 0.19595 0.69368 0.38501 0.89736 0.44876 0.48343 1.2075 0.43883 1.5776-0.09277l0.03538-0.05085 0.69481 0.42171-0.02973 0.05751c-0.10862 0.21006-0.40106 0.5115-0.62162 0.64077-0.32288 0.18923-0.787 0.26869-1.1839 0.2027zm1.3673-3.1538c-0.02435-0.15873-0.11836-0.45009-0.18642-0.57815-0.08271-0.15565-0.28569-0.37872-0.41141-0.45225-0.19785-0.11568-0.53096-0.16003-0.75492-0.10057-0.25542 0.06791-0.52166 0.29056-0.66104 0.55274-0.06808 0.12803-0.16205 0.4195-0.18643 0.57815l-0.01251 0.08123h2.2252z"/>
    <path d="m57.321 67.989c-1.0275-0.17085-1.6924-1.1866-1.6924-2.5853 0-0.97412 0.33097-1.7982 0.89492-2.2281 0.49068-0.3741 1.1131-0.47794 1.671-0.27873 0.59382 0.21202 1.0506 0.76657 1.2442 1.5106 0.08946 0.34374 0.13391 0.88645 0.09554 1.1664l-0.01381 0.10041h-3.0944l0.01135 0.05946c6e-3 0.03282 0.01797 0.11325 0.0259 0.17867 0.04031 0.33089 0.19596 0.69368 0.38502 0.89736 0.44876 0.48343 1.2075 0.43883 1.5776-0.09277l0.03538-0.05085 0.6948 0.42171-0.02973 0.05751c-0.10862 0.21006-0.40106 0.5115-0.62162 0.64077-0.32288 0.18923-0.787 0.26869-1.1839 0.2027zm1.3673-3.1538c-0.02435-0.15873-0.11836-0.45009-0.18643-0.57815-0.08271-0.15565-0.28568-0.37872-0.4114-0.45225-0.19785-0.11568-0.53096-0.16003-0.75492-0.10057-0.25542 0.06791-0.52166 0.29056-0.66104 0.55274-0.06808 0.12803-0.16205 0.4195-0.18643 0.57815l-0.01251 0.08123h2.2252z"/>
    <path d="m52.024 67.979c-0.9664-0.21625-1.5098-1.238-1.4561-2.7377 0.03519-0.98163 0.28658-1.6443 0.79035-2.0832 0.28228-0.24592 0.58488-0.35139 1.0109-0.35238 0.4879-0.0013 0.83033 0.11974 1.1043 0.38965l0.14094 0.13891v-1.9695h0.88791v6.5186h-0.82295v-0.45674l-0.1137 0.11585c-0.29592 0.30138-0.65418 0.44491-1.1532 0.46202-0.1635 0.0048-0.28536-0.0032-0.38851-0.02551zm0.85105-0.92039c0.28333-0.09683 0.57496-0.34601 0.69645-0.59516 0.04084-0.08384 0.04292-0.13485 0.04292-1.0617v-0.9736l-0.08122-0.13745c-0.15224-0.25753-0.4452-0.4793-0.7318-0.55394-0.14484-0.0377-0.40827-0.04257-0.54892-0.0097-0.39296 0.09066-0.66004 0.39911-0.79566 0.9191-0.07701 0.29529-0.09851 0.96985-0.04172 1.3094 0.11391 0.68119 0.39053 1.0387 0.88911 1.1492 0.13353 0.02956 0.41683 0.0065 0.57082-0.04565z"/>
    <path d="m42.018 67.998c-0.66858-0.09244-1.2486-0.58756-1.5175-1.2953-0.16387-0.43136-0.21297-0.73081-0.21297-1.2989 0-0.46926 0.02409-0.67823 0.11617-1.007 0.26781-0.95645 0.90984-1.5398 1.755-1.5946 0.83152-0.05394 1.5172 0.453 1.8362 1.3577 0.26399 0.74848 0.26399 1.7396 0 2.488-0.30686 0.87004-0.95826 1.3772-1.7496 1.3622-0.08932-0.0017-0.19166-0.0065-0.22739-0.01135zm0.56389-0.93958c0.34658-0.12965 0.58646-0.44715 0.71836-0.95073 0.06635-0.25324 0.09286-0.8357 0.05141-1.1289-0.08398-0.59407-0.32114-1.0003-0.69054-1.1829-0.16146-0.07977-0.16896-0.08124-0.41573-0.08124-0.24775 0-0.25367 0.0013-0.41942 0.08302-0.29532 0.1459-0.49622 0.40041-0.61838 0.78317-0.09067 0.28414-0.11755 0.53058-0.10429 0.95641 0.01349 0.4318 0.05611 0.6286 0.2026 0.93373 0.16475 0.34324 0.44506 0.57672 0.76006 0.63311 0.14345 0.02568 0.38144 0.0048 0.51593-0.04582z"/>
   </g>
   <path d="m40.886 45.65v-3.2004h1.0181v2.6475h0.05567c0.04966 0 0.20064-0.14324 1.3954-1.3237l1.3397-1.3237h1.2697l-0.04884 0.04608c-0.02686 0.02534-0.69881 0.68513-1.4932 1.4662l-1.4444 1.4201 3.1098 3.4601-0.6552 0.0044c-0.60456 0.0041-0.65775 0.0021-0.68817-0.02513-0.01814-0.01626-0.62669-0.69309-1.3524-1.5041l-1.3194-1.4745-0.16874-0.0102v3.018h-1.0181z" stroke-width=".017941"/>
  </g>
 </g>
</svg>
