<svg xmlns="http://www.w3.org/2000/svg" viewBox="0 0 32.01 27.76"><path d="M16 0L0 9.24v18.52h32V9.24zm.86 26.05V19l5.86-3.38v10.43zm13.44 0h-5.87V14.6l5.87-3.39zm-28.59 0V11.21l5.86 3.39v11.45zm13.44 0H9.28V15.59L15.15 19zm-5-20.69L16 2l5.87 3.39L16 8.75zm11.73 8.75L16 17.49l-5.86-3.38L16 10.72zM8.43 6.35l5.86 3.38-5.86 3.39-5.87-3.39zm15.15 6.77l-5.87-3.39 5.87-3.38 5.86 3.38z" fill="#1e1e1e"/><path fill="#bdea18" d="M22.72 15.59l-5.86 3.38v7.08h5.86V15.59zm7.58-4.38l-5.87 3.39v11.45h5.87V11.21z"/><path fill="#fc3f4d" d="M1.71 26.05h5.87V14.6l-5.87-3.39v14.84zm7.57 0h5.87v-7.08l-5.87-3.38v10.46z"/><path fill="#fff" d="M10.14 5.36L16 8.75l5.87-3.39L16 1.97l-5.86 3.39zm-1.71.99L2.56 9.73l5.87 3.39 5.86-3.39-5.86-3.38zm15.15 6.77l5.86-3.39-5.86-3.38-5.87 3.38 5.87 3.39zm-13.44.99L16 17.49l5.87-3.38L16 10.72l-5.86 3.39z"/></svg>