<svg version="1.1" id="Layer_1" xmlns="http://www.w3.org/2000/svg" x="0" y="0" viewBox="0 0 32 23.8" xml:space="preserve"><style>.st5{fill-rule:evenodd;clip-rule:evenodd;fill:#1e1e1e}</style><g id="Layer_1-2"><g id="Layer_1-2-2"><g id="LOGO_line_waarborg_10jaar"><path d="M19.2 15.5L8.5 9.3l10.8-6.2L30 9.3l-10.8 6.2zm-.7 6.9H7.8V10.5l10.7 6.2v5.7zm12.1 0H19.9v-5.7l10.7-6.2v11.9zM19.2 1.6L6.4 8.9v14.8H32V8.9L19.2 1.6z" fill="#1d1d1e"/><path d="M30.6 10.5l-10.7 6.2v5.7h10.7V10.5z" fill="#bdea18"/><path d="M7.8 22.4h10.7v-5.7L7.8 10.5v11.9z" fill="#fc3f4d"/><path d="M8.5 9.3l10.8 6.2L30 9.3 19.2 3.1 8.5 9.3z" fill="#fff"/><path d="M3.3 13.2v5.1l3.8-2.2 3.8 2.2v-5.1H3.3z" fill-rule="evenodd" clip-rule="evenodd" fill="#fff140"/><path class="st5" d="M12.3 20.6l-5.2-3-5.2 3V10.3h10.4v10.3zm-9-9v6.7l3.8-2.2 3.8 2.2v-6.7H3.3z"/><circle cx="7.1" cy="7.2" r="5.8" fill="#fff140"/><path class="st5" d="M7.2 0c4 0 7.2 3.2 7.2 7.2s-3.2 7.2-7.2 7.2S0 11.2 0 7.2 3.2 0 7.2 0zm-.1 1.4c3.2 0 5.8 2.6 5.8 5.8 0 3.2-2.6 5.8-5.8 5.8-3.2 0-5.8-2.6-5.8-5.8 0-3.2 2.6-5.8 5.8-5.8z"/><path d="M5.7 4.1H4.5l-1.2.4.4 1.2.6-.2v4.6h1.5v-6zM11 7.2C11 5 10.3 4 8.8 4S6.6 5 6.6 7.2s.6 3.2 2.2 3.2S11 9.3 11 7.2zm-2.9 0c0-1.2.1-1.8.7-1.8s.7.5.7 1.8-.2 1.7-.7 1.7-.7-.5-.7-1.7z" fill="#1e1e1e"/></g></g></g></svg>