<svg viewBox="0 0 398.1 107.5" xmlns="http://www.w3.org/2000/svg"><path d="M117.1 0C108.6 0 102 5.6 102 12.7v81.8c0 7.1 6.6 12.7 15.1 12.7 8.4 0 15.3-5.7 15.3-12.7V12.7c0-7-6.9-12.7-15.3-12.7zM68.9.7c-8.5 0-15.1 5.6-15.1 12.7V45L28 6.7l-.2-.2c-.1-.2-.3-.4-.5-.6C24.8 2.6 20.7.6 16 .6h-1C6.6.7 0 6.2 0 13.3v81.5c0 7.1 6.6 12.7 15.1 12.7 8.4 0 15.2-5.7 15.2-12.7V63l24.5 36.4c.8 1.9 2.2 3.6 3.9 4.9 2.5 2.1 5.8 3.3 9.3 3.3h.9c8.4 0 15.2-5.7 15.2-12.7V13.3C84.2 6.3 77.3.7 68.9.7z" fill="#ee712a"/><path d="M288.4 1.2c-2.3 0-4.6.4-6.8 1.2l-17.8 6.4c-7.7 2.7-11.3 11.9-8.1 20.8 2.5 7 8.8 11.9 15.3 11.9h.7v50.6c0 8.2 7.4 14.6 16.9 14.6 9.4 0 17-6.6 17-14.6V15.9c-.2-8.1-7.8-14.7-17.2-14.7zm0 98.6c-5.6 0-9.9-3.4-9.9-7.7V32.2l-5.7 2.1c-.6.2-1.2.3-1.9.3-3.6 0-7.3-3-8.8-7.2-1.9-5.3-.1-10.5 3.9-12L284 9c1.4-.5 2.9-.8 4.4-.8 5.6 0 10.1 3.5 10.1 7.7v76.2c0 4.2-4.6 7.7-10.1 7.7zm99.3-52.1c3.3-4.9 5.1-10.4 5.1-16 0-16.8-14.8-30.4-32.9-30.4S327 14.9 327 31.7c0 5.7 1.7 11.2 5.1 16-6.6 6.5-10.4 15.2-10.4 24 0 19.5 17.1 35.3 38.2 35.3s38.2-15.8 38.2-35.3c0-8.8-3.8-17.5-10.4-24zm-27.8 52.4c-17.3 0-31.3-12.7-31.3-28.4 0-7.9 3.8-15.5 10.3-20.9l2.7-2.2-2.3-2.7c-3.6-4.2-5.4-9.1-5.4-14.2 0-13 11.7-23.5 26-23.5s26 10.5 26 23.5c0 5.1-1.9 10-5.5 14.2l-2.3 2.7 2.7 2.2c6.7 5.5 10.3 12.9 10.3 20.9.1 15.6-14 28.4-31.2 28.4z" fill="#fab400"/><path d="M183.2 62.2c-.9-.8-3.6-3.5-3.7-7.6-.1-2.3.6-5.8 4.3-8.9l7.9-8.3 5.3-5.7-21.7-23.3c-3.5-4.2-7.6-6.5-11.8-6.5-3.7 0-7.5 1.6-11.3 4.9-7.6 7.8-4.9 16.1.2 21.2l24.5 26.3L152.2 81c-3.7 4.2-7.7 13.4.9 21.4 2.9 2.6 6.1 3.9 9.6 3.9 6.5 0 11.4-4.6 12.4-5.6L197 77.1z" fill="#ee712a"/><path d="M243.2 6.2c-3.8-3.3-7.8-5-11.7-5-4.6 0-8.8 2.3-12.3 6.6l-27.5 29.6-7.9 8.3c-3.7 3.1-4.4 6.6-4.3 8.9.2 4.2 2.8 6.8 3.7 7.6l36.2 39.1c.9 1 6 5.8 12.8 5.8 3.7 0 7.1-1.4 10.1-4.2 9-8.4 4.8-18.1.9-22.5l-24.1-26.1L243 28.6c5.4-5.4 8.3-14.1.2-22.4zm-32.1 48.2l27.8 30.1c3.2 3.6 4.8 9.2-.5 14.1-1.9 1.7-4 2.6-6.1 2.6-3.2 0-6.6-2-8.5-3.9L187.3 58l-.1-.1c-.5-.4-1.8-1.7-1.8-3.5 0-.9.2-2.4 2.4-4.3l35.8-38.3.1-.1c2.5-3 5.1-4.5 7.9-4.5 2.4 0 4.9 1.1 7.5 3.3 4.4 4.5 4.3 9.5-.3 14.1z" fill="#fab400"/></svg>