<svg xmlns="http://www.w3.org/2000/svg" viewBox="0 0 2426.49 1676.95"><defs><style>.pin-cls-1,.pin-cls-2{fill:#4a5ca2;fill-rule:evenodd}.pin-cls-2{fill:#fff}</style></defs><g id="Layer_2" data-name="Layer 2"><g id="Layer_1-2" data-name="Layer 1"><path class="pin-cls-1" d="M0 0h2426.49v1677H0z"/><path class="pin-cls-2" d="M1689.9 482.73a25.46 25.46 0 0025.53-25.4 25.42 25.42 0 00-25.43-25.49h-.14a25.45 25.45 0 100 50.89zm377.29 0a25.45 25.45 0 10-25.46-25.51v.07a25.46 25.46 0 0025.46 25.44zm96 0a25.45 25.45 0 10-25.46-25.43 25.44 25.44 0 0025.46 25.43zm94.34 0a25.45 25.45 0 10-25.53-25.46 25.53 25.53 0 0025.53 25.46zm96 0a25.45 25.45 0 10-25.46-25.44 25.46 25.46 0 0025.46 25.44zM180.66 862.09a25.49 25.49 0 10-25.37-25.54 25.57 25.57 0 0025.37 25.54zm1697.91-189.18a25.4 25.4 0 0025.43-25.33v-.12a25.45 25.45 0 00-50.9-.07v.07a25.33 25.33 0 0025.47 25.45zm188.62 0a25.45 25.45 0 10-25.46-25.45 25.47 25.47 0 0025.46 25.45zm96 0a25.35 25.35 0 0025.43-25.25v-.2a25.45 25.45 0 10-50.89-.07v.07a25.34 25.34 0 0025.46 25.45zm94.34 0a25.42 25.42 0 0025.47-25.38v-.07a25.5 25.5 0 10-25.6 25.45zm96 0a25.35 25.35 0 0025.47-25.25v-.2a25.46 25.46 0 10-25.46 25.45zm-475-96a25.39 25.39 0 10-25.44-25.37 25.44 25.44 0 0025.48 25.37zm188.62 0a25.42 25.42 0 10-1.63 0c.58.02 1.12.02 1.67 0zm96 0a25.41 25.41 0 10-25.41-25.41 25.41 25.41 0 0025.45 25.41zm94.34 0A25.41 25.41 0 102232 551.5a25.47 25.47 0 0025.53 25.41zm96 0a25.42 25.42 0 10-1.62 0q.85.03 1.66 0zm-569.31 0a25.41 25.41 0 10-25.43-25.49v.12a25.38 25.38 0 0025.47 25.37zm188.62 0a25.34 25.34 0 0025.44-25.23v-.14a25.34 25.34 0 00-25.24-25.45h-.2a25.46 25.46 0 00-25.46 25.44 25.44 25.44 0 0025.5 25.38zm-188.62 96a25.42 25.42 0 0025.46-25.38v-.07a25.45 25.45 0 10-50.89-.07v.07a25.33 25.33 0 0025.47 25.45zm188.62 0a25.3 25.3 0 0025.44-25.15v-.3a25.45 25.45 0 10-25.44 25.45zm284.69-382.26a25.45 25.45 0 10-25.54-25.5 25.49 25.49 0 0025.54 25.46zm0 94.34a25.49 25.49 0 10-25.49-25.44 25.45 25.45 0 0025.53 25.45zm-94.34-190.34a25.38 25.38 0 0025.43-25.33v-.12a25.45 25.45 0 10-25.43 25.45zm-565.87 235.53V481h-49.73v46.51h48.92v47.34h48.81v51h-48v47.08h-1402V429.77l1402 .41z"/><path class="pin-cls-1" d="M1263.76 672.91a25.34 25.34 0 0025.46-25.23v-.22a25.45 25.45 0 10-25.46 25.45zm141.54-47.08a25.49 25.49 0 10-25.46-25.45 25.38 25.38 0 0025.46 25.45zm-284.7 0a25.47 25.47 0 0025.54-25.41 25.46 25.46 0 10-25.54 25.45zm379-48.92a25.41 25.41 0 100-50.82 25.41 25.41 0 000 50.82zm-141.42 0a25.41 25.41 0 10-25.46-25.38 25.44 25.44 0 0025.41 25.38zm95.25-47.08a25.46 25.46 0 10-25.54-25.38 25.36 25.36 0 0025.49 25.38zm-283.87 0a25.37 25.37 0 0025.37-25.37 25.45 25.45 0 00-25.37-25.53 25.46 25.46 0 000 50.91zM1310.93 481a25.41 25.41 0 10-25.41-25.41 25.41 25.41 0 0025.41 25.41zm-469.46 0a25.41 25.41 0 10-25.37-25.45A25.38 25.38 0 00841.47 481z"/><path class="pin-cls-2" d="M1645.28 625.83a25.47 25.47 0 0025.54-25.41 25.45 25.45 0 10-25.54 25.45zm-48.81-47.59A25.45 25.45 0 101571 552.8a25.44 25.44 0 0025.47 25.44zm.81-97.24a25.47 25.47 0 0025.54-25.38v-.07a25.46 25.46 0 00-25.53-25.37 25.41 25.41 0 000 50.82zm-.81 191.91a25.45 25.45 0 10-25.47-25.45 25.39 25.39 0 0025.46 25.45z"/><path class="pin-cls-1" d="M1597.28 625.83a25.47 25.47 0 0025.54-25.41 25.49 25.49 0 10-25.54 25.45z"/><path class="pin-cls-2" d="M1547.55 529.83a25.46 25.46 0 10-25.46-25.38 25.54 25.54 0 0025.46 25.38z"/><path class="pin-cls-1" d="M1548.47 672.91a25.35 25.35 0 0025.44-25.25v-.2a25.49 25.49 0 10-25.44 25.45zm-.92-191.91a25.41 25.41 0 10-25.46-25.45 25.56 25.56 0 0025.46 25.45z"/><path class="pin-cls-2" d="M2068.5 192.91a25.45 25.45 0 10-25.62-25.44 25.52 25.52 0 0025.62 25.44z"/><path class="pin-cls-2" d="M206.1 285.27v551.4h-50.81v-551.4l.07-3.15C155 206.92 220.94 141.76 298.29 142h1771.88v50.9H295.48c-48.83.33-89.12 44.85-89.21 90.36l-.17 2zM78 957.69a25.5 25.5 0 10-25.45-25.54A25.52 25.52 0 0078 957.69z"/><path class="pin-cls-2" d="M128.5 957.69a25.5 25.5 0 10-25.44-25.54 25.5 25.5 0 0025.44 25.54z"/><path class="pin-cls-2" d="M178.17 957.69a25.5 25.5 0 10-25.45-25.54 25.5 25.5 0 0025.45 25.54z"/><path class="pin-cls-2" d="M228.73 957.69a25.5 25.5 0 10-25.61-25.54 25.49 25.49 0 0025.61 25.54z"/><path class="pin-cls-2" d="M278.73 957.69a25.5 25.5 0 10-25.44-25.54 25.59 25.59 0 0025.44 25.54z"/><path class="pin-cls-2" d="M329.21 957.69a25.5 25.5 0 10-25.45-25.54 25.52 25.52 0 0025.45 25.54z"/><path class="pin-cls-2" d="M378.87 957.69a25.5 25.5 0 10-25.44-25.54 25.51 25.51 0 0025.44 25.54z"/><path class="pin-cls-2" d="M429.36 957.69a25.5 25.5 0 10-25.44-25.54 25.52 25.52 0 0025.44 25.54z"/><path class="pin-cls-2" d="M479 957.69a25.5 25.5 0 10-25.54-25.54A25.51 25.51 0 00479 957.69z"/><path class="pin-cls-2" d="M510.68 992.85a25.5 25.5 0 00.13-51h-.13a25.38 25.38 0 00-25.44 25.32v.12a25.49 25.49 0 0025.44 25.56z"/><path class="pin-cls-2" d="M544.43 1027.08a25.45 25.45 0 10-25.43-25.45 25.46 25.46 0 0025.43 25.45z"/><path class="pin-cls-2" d="M576.92 1062.64a25.44 25.44 0 10-25.37-25.46 25.47 25.47 0 0025.37 25.46z"/><path class="pin-cls-2" d="M542.77 1098.2a25.45 25.45 0 10-25.45-25.47 25.4 25.4 0 0025.45 25.47z"/><path class="pin-cls-2" d="M508.61 1133.77a25.46 25.46 0 10-25.54-25.39 25.47 25.47 0 0025.54 25.39z"/><path class="pin-cls-2" d="M474.29 1169.42a25.41 25.41 0 0025.37-25.42v-.09a25.37 25.37 0 00-50.74-.12v.12a25.4 25.4 0 0025.37 25.51z"/><path class="pin-cls-2" d="M425.46 1169.42a25.4 25.4 0 0025.37-25.42v-.12a25.41 25.41 0 10-25.37 25.54z"/><path class="pin-cls-2" d="M376.21 1169.42a25.4 25.4 0 0025.37-25.42v-.12a25.37 25.37 0 10-25.37 25.54z"/><path class="pin-cls-2" d="M327.47 1169.42a25.45 25.45 0 10-25.47-25.59v.05a25.49 25.49 0 0025.44 25.54z"/><path class="pin-cls-2" d="M277.4 1169.42a25.46 25.46 0 10-25.48-25.42 25.45 25.45 0 0025.48 25.45z"/><path class="pin-cls-2" d="M228.16 1169.42a25.46 25.46 0 10-24.63-24.64 25.54 25.54 0 0024.63 24.64z"/><path class="pin-cls-2" d="M152.72 932.16h50.91v380.17h-50.91V932.16zm174.75 405.71a25.45 25.45 0 10.08-50.89h-.08a25.45 25.45 0 000 50.89z"/><path class="pin-cls-2" d="M277.4 1337.87a25.37 25.37 0 0025.44-25.32v-.11a25.38 25.38 0 00-25.33-25.44h-.11a25.39 25.39 0 00-25.4 25.32v.12a25.4 25.4 0 0025.4 25.43z"/><path class="pin-cls-2" d="M228.16 1337.87a25.46 25.46 0 10-25.39-25.52 25.46 25.46 0 0025.39 25.52z"/><path class="pin-cls-2" d="M178.17 1337.87a25.42 25.42 0 10-25.45-25.43 25.41 25.41 0 0025.45 25.43z"/><path class="pin-cls-2" d="M128.09 1337.87a25.42 25.42 0 10-25.45-25.43 25.38 25.38 0 0025.45 25.43z"/><path class="pin-cls-2" d="M78.86 1337.87a25.39 25.39 0 10-.12 0zm642.73-380.18a25.5 25.5 0 10-25.37-25.54 25.6 25.6 0 0025.37 25.54z"/><path class="pin-cls-2" d="M772.08 957.69a25.5 25.5 0 10-25.38-25.54 25.47 25.47 0 0025.38 25.54z"/><path class="pin-cls-2" d="M821.82 957.69a25.5 25.5 0 10-25.53-25.54 25.51 25.51 0 0025.53 25.54z"/><path class="pin-cls-2" d="M872.22 957.69a25.5 25.5 0 10-25.37-25.54 25.54 25.54 0 0025.37 25.54z"/><path class="pin-cls-2" d="M922.38 957.69a25.5 25.5 0 10-25.53-25.54 25.53 25.53 0 0025.53 25.54zm-126.09-25.53h50.82v380.17h-50.82V932.16zM921 1337.87a25.34 25.34 0 0025.45-25.24v-.19a25.37 25.37 0 10-25.54 25.43z"/><path class="pin-cls-2" d="M871.89 1337.87A25.45 25.45 0 00872 1287h-.07a25.33 25.33 0 00-25.44 25.24v.22a25.34 25.34 0 0025.4 25.41z"/><path class="pin-cls-2" d="M821.82 1337.87a25.37 25.37 0 0025.37-25.37v-.06a25.38 25.38 0 00-25.31-25.44h-.06a25.46 25.46 0 000 50.89z"/><path class="pin-cls-2" d="M771.74 1337.87a25.45 25.45 0 10-25.45-25.55v.12a25.4 25.4 0 0025.45 25.43z"/><path class="pin-cls-2" d="M722.51 1337.87a25.37 25.37 0 0025.37-25.37v-.06a25.38 25.38 0 00-50.74-1.63v1.63a25.32 25.32 0 0025.37 25.43zm349.18-380.18A25.51 25.51 0 101047 933a25.55 25.55 0 0024.69 24.69z"/><path class="pin-cls-2" d="M1122.35 957.69a25.5 25.5 0 10-25.54-25.54 25.52 25.52 0 0025.54 25.54z"/><path class="pin-cls-2" d="M1172.09 957.69a25.5 25.5 0 10-25.54-25.54 25.57 25.57 0 0025.54 25.54z"/><path class="pin-cls-2" d="M1222.58 957.69a25.5 25.5 0 10-25.38-25.54 25.5 25.5 0 0025.38 25.54z"/><path class="pin-cls-2" d="M1146.55 932.16h50.91v380.17h-50.91V932.16z"/><path class="pin-cls-2" d="M1222.14 1337.87a25.46 25.46 0 10-25.37-25.55v.12a25.35 25.35 0 0025.25 25.43z"/><path class="pin-cls-2" d="M1172.09 1337.87a25.45 25.45 0 10-25.54-25.49v.06a25.47 25.47 0 0025.54 25.43z"/><path class="pin-cls-2" d="M1121.92 1337.87a25.42 25.42 0 10-25.44-25.43 25.38 25.38 0 0025.44 25.43z"/><path class="pin-cls-2" d="M1072.6 1337.87a25.4 25.4 0 0025.45-25.34v-.09a25.4 25.4 0 00-25.33-25.46h-.12a25.39 25.39 0 00-25.45 25.34v.12a25.39 25.39 0 0025.45 25.43zM1491 957.69a25.5 25.5 0 10-25.46-25.54 25.58 25.58 0 0025.46 25.54z"/><path class="pin-cls-2" d="M1541.57 957.69a25.51 25.51 0 10-24.68-24.69 25.54 25.54 0 0024.68 24.69z"/><path class="pin-cls-2" d="M1591.4 957.69a25.5 25.5 0 10-25.61-25.54 25.51 25.51 0 0025.61 25.54z"/><path class="pin-cls-2" d="M1641.89 957.69a25.5 25.5 0 10-25.46-25.54 25.54 25.54 0 0025.46 25.54z"/><path class="pin-cls-2" d="M1692.13 957.69a25.5 25.5 0 10-25.52-25.52 25.58 25.58 0 0025.52 25.52zm-126.33-25.53h51v380.17h-51V932.16z"/><path class="pin-cls-2" d="M1591.4 1337.87a25.45 25.45 0 00.08-50.89h-.08a25.47 25.47 0 00-25.61 25.33v.13a25.48 25.48 0 0025.53 25.43z"/><path class="pin-cls-2" d="M1541.25 1337.87a25.45 25.45 0 10-25.54-25.49v.06a25.47 25.47 0 0025.54 25.43zm-287.77-341.62a25.5 25.5 0 10-25.48-25.54 25.51 25.51 0 0025.44 25.54z"/><path class="pin-cls-2" d="M1286 1034a25.5 25.5 0 100-51 25.5 25.5 0 000 51z"/><path class="pin-cls-2" d="M1318.66 1071.68a25.5 25.5 0 0025.54-25.46 25.5 25.5 0 10-25.54 25.46z"/><path class="pin-cls-2" d="M1349.49 1109.41a25.46 25.46 0 00.16-50.92h-.16a25.38 25.38 0 00-25.46 25.3v.16a25.48 25.48 0 0025.46 25.46z"/><path class="pin-cls-2" d="M1381.25 1147.12a25.46 25.46 0 10-25.46-25.46 25.59 25.59 0 0025.46 25.46z"/><path class="pin-cls-2" d="M1413.91 1184.92a25.5 25.5 0 10-25.54-25.54 25.58 25.58 0 0025.54 25.54z"/><path class="pin-cls-2" d="M1445.67 1222.63a25.49 25.49 0 10-25.67-25.53 25.54 25.54 0 0025.67 25.53z"/><path class="pin-cls-2" d="M1477.23 1260.27a25.07 25.07 0 10-25.43-25.46 25.51 25.51 0 0025.43 25.46z"/><path class="pin-cls-2" d="M1509.08 1298.83a25.46 25.46 0 10-.15 0zm-837.06 39a25.45 25.45 0 00.07-50.89H672a25.45 25.45 0 000 50.89zm1585.51-570.49a25.49 25.49 0 10-25.53-25.52 25.52 25.52 0 0025.53 25.52z"/><path class="pin-cls-2" d="M205.69 1408.52a25.41 25.41 0 00-50.82 0c0 70.88 59.44 113.81 130.24 115.89h1854.51c77.69.16 143.5-64.92 143.25-140.11l.11-3.14V740.31h-51v642.82c-.18 45.53-40.53 90-89.44 90.36H285.61v.19c-44.76-1.9-79-20.25-80-65.15h.08zM2353.53 371.06a11.53 11.53 0 100-23.06 11.4 11.4 0 00-11.45 11.33v.2a11.43 11.43 0 0011.45 11.53zm0-94.34a11.57 11.57 0 0011.61-11.53 11.5 11.5 0 00-11.54-11.44h-.07a11.33 11.33 0 00-11.45 11.2v.24a11.38 11.38 0 0011.45 11.53zm0-96a11.49 11.49 0 100-23 11.49 11.49 0 000 23zm-96 0A11.49 11.49 0 102246 169.2a11.48 11.48 0 0011.53 11.53zm96-97.33a11.53 11.53 0 100-23.05 11.34 11.34 0 00-11.45 11.24v.29a11.39 11.39 0 0011.45 11.53zm-96 0a11.53 11.53 0 00.08-23.05h-.08A11.46 11.46 0 002246 71.72v.16a11.5 11.5 0 0011.53 11.52zm-94.34 0a11.53 11.53 0 10-11.45-11.63v.11a11.48 11.48 0 0011.45 11.53zm-93 0a11.38 11.38 0 0011.43-11.3v-.22a11.33 11.33 0 00-11.12-11.53h-.31a11.38 11.38 0 00-11.45 11.32v.21a11.44 11.44 0 0011.43 11.53zm-96 0a11.52 11.52 0 0011.53-11.48 11.45 11.45 0 00-11.38-11.53h-.15a11.4 11.4 0 00-11.53 11.29v.24a11.46 11.46 0 0011.51 11.49zm-94.35 0a11.5 11.5 0 0011.53-11.48A11.44 11.44 0 001880 60.35h-.16a11.5 11.5 0 00-11.53 11.48 11.57 11.57 0 0011.51 11.57zm-93 0A11.43 11.43 0 001798.25 72a.49.49 0 000-.12 11.44 11.44 0 10-11.42 11.52zm-96 0A11.45 11.45 0 001702.26 72v-.09a11.5 11.5 0 10-23 0 11.52 11.52 0 0011.49 11.52zm-94.33 0A11.5 11.5 0 001608 71.94v-.06a11.44 11.44 0 00-11.35-11.53h-.16a11.5 11.5 0 00-11.53 11.48 11.55 11.55 0 0011.51 11.57zm-93 0A11.52 11.52 0 001515 71.92a11.54 11.54 0 10-11.53 11.52zm-96 0A11.42 11.42 0 001418.88 72v-.12a11.37 11.37 0 00-11.43-11.53 11.53 11.53 0 000 23.05zm-94.37 0a11.49 11.49 0 0011.53-11.46v-.06a11.43 11.43 0 00-11.34-11.53h-.19a11.53 11.53 0 000 23.05zm-93.83 0a11.48 11.48 0 0011.45-11.51 11.43 11.43 0 00-11.32-11.53h-.13a11.53 11.53 0 000 23.05zm-96.08 0a11.53 11.53 0 10-11.61-11.52 11.54 11.54 0 0011.55 11.53zm-94.25 0a11.49 11.49 0 0011.44-11.52 11.44 11.44 0 10-11.44 11.52zm-92.85 0a11.49 11.49 0 0011.44-11.52 11.44 11.44 0 00-11.33-11.53h-.11a11.49 11.49 0 00-11.53 11.48 11.54 11.54 0 0011.47 11.58zm-92 0a11.53 11.53 0 10-11.53-11.52 11.55 11.55 0 0011.45 11.53zm-189.95 0a11.49 11.49 0 0011.44-11.52 11.43 11.43 0 00-11.32-11.53h-.12a11.58 11.58 0 00-11.68 11.48 11.63 11.63 0 0011.6 11.58zm-92.92 0a11.53 11.53 0 00.05-23.05h-.05a11.45 11.45 0 00-11.53 11.37v.16a11.5 11.5 0 0011.45 11.53zm-96.33 0a11.53 11.53 0 10-11.44-11.64v.12a11.47 11.47 0 0011.33 11.53zM369 83.4A11.43 11.43 0 00380.46 72v-.13A11.49 11.49 0 10369 83.4zm-94.1 0a11.54 11.54 0 00.9-23.07 9.73 9.73 0 00-1.08 0 11.54 11.54 0 00.18 23.06zm-92.9 0a11.5 11.5 0 0011.5-11.47v-.05a11.44 11.44 0 00-11.35-11.53H182a11.42 11.42 0 00-11.44 11.41v.12A11.48 11.48 0 00182 83.4zm-98.33 0A11.42 11.42 0 0095 71.93v-.05a11.36 11.36 0 00-11.2-11.53h-.17a11.53 11.53 0 000 23.05zm0 94.26a11.49 11.49 0 00.07-23h-.07a11.57 11.57 0 00-11.6 11.53 11.5 11.5 0 0011.58 11.47zm667-94.26a11.49 11.49 0 0011.53-11.46v-.06a11.45 11.45 0 00-11.37-11.53h-.16a11.42 11.42 0 00-11.44 11.41v.12a11.48 11.48 0 0011.46 11.52zm-667 192.08a11.57 11.57 0 000-23.14 11.57 11.57 0 100 23.14zm0 94.17a11.44 11.44 0 00.11-22.88h-.11a11.5 11.5 0 00-11.6 11.4 11.49 11.49 0 0011.58 11.48zm0 97.83A11.41 11.41 0 0095 456a11.39 11.39 0 00-11.34-11.44 11.49 11.49 0 100 23zm0 94.27A11.5 11.5 0 0095 550.15a11.46 11.46 0 00-11.35-11.45 11.53 11.53 0 100 23zm0 97.65a11.48 11.48 0 00.16-23h-.16a11.51 11.51 0 00-11.6 11.43v.17a11.49 11.49 0 0011.58 11.4zm0 94.35A11.35 11.35 0 0095 742.42v-.11a11.43 11.43 0 00-11.3-11.53h-.07a11.57 11.57 0 00-11.6 11.53 11.5 11.5 0 0011.62 11.44zm0 94.43a11.57 11.57 0 000-23.13 11.57 11.57 0 100 23.13zm2269.88 762.54a11.58 11.58 0 0011.61-11.53 11.56 11.56 0 00-11.61-11.45 11.38 11.38 0 00-11.45 11.3v.15a11.4 11.4 0 0011.43 11.53zm-96 0a11.26 11.26 0 10-11.53-11.54 11.55 11.55 0 0011.53 11.54zm96-97.25a11.57 11.57 0 100-23.14 11.45 11.45 0 00-11.45 11.45v.16a11.44 11.44 0 0011.43 11.53zm-96 0a11.57 11.57 0 10-11.55-11.55 11.6 11.6 0 0011.55 11.55zm96-93a11.57 11.57 0 000-23.14 11.57 11.57 0 000 23.14zm0-97.33a11.57 11.57 0 100-23.13 11.57 11.57 0 000 23.13zm0-93a11.53 11.53 0 100-23.06 11.38 11.38 0 00-11.45 11.3v.16a11.45 11.45 0 0011.43 11.56zm0-97.42a11.48 11.48 0 10-11.45-11.43 11.31 11.31 0 0011.43 11.39zm0-94.26a11.56 11.56 0 0011.61-11.53 11.57 11.57 0 00-11.61-11.5 11.38 11.38 0 00-11.45 11.32v.18a11.39 11.39 0 0011.43 11.49zm0-93.09a11.49 11.49 0 0011.59-11.37v-.05a11.62 11.62 0 00-11.61-11.53 11.44 11.44 0 00-11.45 11.43v.1a11.31 11.31 0 0011.45 11.38zm0-97.15a11.57 11.57 0 100-23.13 11.43 11.43 0 00-11.45 11.42v.09a11.47 11.47 0 0011.43 11.58zm0-94.43a11.51 11.51 0 0011.61-11.42 11.57 11.57 0 00-11.61-11.53 11.39 11.39 0 00-11.45 11.32v.21a11.32 11.32 0 0011.43 11.38zm-2178 857a11.58 11.58 0 0011.61-11.53 11.53 11.53 0 10-11.61 11.54zm-95.92 0a11.6 11.6 0 0011.68-11.51 11.59 11.59 0 00-11.68-11.45 11.5 11.5 0 000 23z"/><path class="pin-cls-2" d="M175.52 1513.47a11.58 11.58 0 10-11-11 11.62 11.62 0 0011 11zm-95.92 0a11.57 11.57 0 10-11.35-11.53 11.51 11.51 0 0011.35 11.53zm0-93.53a11.52 11.52 0 000-23 11.46 11.46 0 00-11.35 11.58 11.37 11.37 0 0011.35 11.42zm286.76 190.78a11.51 11.51 0 0011.6-11.43v-.11a11.52 11.52 0 10-11.6 11.54zm-95.84 0a11.58 11.58 0 0011.61-11.53 11.55 11.55 0 10-11.61 11.54zm285.1 0a11.43 11.43 0 0011.44-11.42v-.12a11.49 11.49 0 10-11.45 11.54zm-95.83 0a11.44 11.44 0 0011.44-11.42v-.12a11.42 11.42 0 00-11.44-11.45 11.5 11.5 0 100 23zm286.67 0a11.38 11.38 0 0011.44-11.31v-.23a11.36 11.36 0 00-11.27-11.45h-.17a11.5 11.5 0 000 23zm-95.83 0a11.5 11.5 0 10-11.49-11.5 11.56 11.56 0 0011.49 11.5zm283.27 0a11.5 11.5 0 10-11.44-11.54 11.55 11.55 0 0011.44 11.54zm-95.91 0a11.52 11.52 0 0011.61-11.43v-.11a11.5 11.5 0 00-11.6-11.45 11.5 11.5 0 100 23zm283.52 0a11.44 11.44 0 0011.49-11.42v-.12a11.41 11.41 0 00-11.38-11.45h-.06a11.35 11.35 0 00-11.44 11.26v.19a11.39 11.39 0 0011.39 11.54zm-96.08 0a11.52 11.52 0 0011.61-11.43v-.11a11.51 11.51 0 00-11.56-11.45 11.5 11.5 0 000 23zm283 0a11.5 11.5 0 10-11.6-11.59 11.53 11.53 0 0011.62 11.59zm-96.08 0a11.5 11.5 0 10-11.6-11.54 11.56 11.56 0 0011.62 11.54zm284.6 0a11.51 11.51 0 101.09-23H1497a11.4 11.4 0 00-11.43 11.35v.1a11.41 11.41 0 0011.3 11.53zm-95.91 0a11.5 11.5 0 000-23 11.52 11.52 0 00-11.61 11.4 11.55 11.55 0 0011.56 11.54zm286.25 0a11.51 11.51 0 001.1-23h-1.1a11.39 11.39 0 00-11.42 11.35v.1a11.4 11.4 0 0011.29 11.53zm-95.91 0a11.5 11.5 0 10-11.67-11.54 11.55 11.55 0 0011.69 11.54zm284.53 0a11.45 11.45 0 0011.53-11.38v-.16a11.45 11.45 0 00-11.45-11.45h-.08a11.41 11.41 0 00-11.45 11.38v.07a11.44 11.44 0 0011.47 11.54zm-96 0a11.51 11.51 0 101.09-23h-1.09a11.39 11.39 0 00-11.43 11.35v.1a11.41 11.41 0 0011.3 11.53zm286.42 0a11.45 11.45 0 0011.46-11.43v-.11a11.43 11.43 0 00-11.41-11.45 11.44 11.44 0 00-11.53 11.35v.1a11.49 11.49 0 0011.43 11.54zm-96.08 0a11.58 11.58 0 0011.61-11.53 11.55 11.55 0 00-11.61-11.45 11.5 11.5 0 000 23zm191.18 0a11.58 11.58 0 0011.61-11.53 11.28 11.28 0 10-11.61 11.54z"/></g></g></svg>